<mxfile host="Electron" modified="2023-05-12T21:25:28.839Z" agent="Mozilla/5.0 (Macintosh; Intel Mac OS X 10_15_7) AppleWebKit/537.36 (KHTML, like Gecko) draw.io/21.2.8 Chrome/112.0.5615.165 Electron/24.2.0 Safari/537.36" etag="F7PWN98WKRLL-oh63QTJ" version="21.2.8" type="device">
  <diagram name="Page-1" id="N31Ih0QBeNijFY81hRy2">
    <mxGraphModel dx="1017" dy="655" grid="1" gridSize="10" guides="1" tooltips="1" connect="1" arrows="1" fold="1" page="1" pageScale="1" pageWidth="827" pageHeight="1169" math="0" shadow="0">
      <root>
        <mxCell id="0" />
        <mxCell id="1" parent="0" />
        <mxCell id="xX24Tsl0bHZo-DWWqhyH-4" style="edgeStyle=orthogonalEdgeStyle;rounded=0;orthogonalLoop=1;jettySize=auto;html=1;entryX=0.5;entryY=0;entryDx=0;entryDy=0;" parent="1" source="xX24Tsl0bHZo-DWWqhyH-1" target="xX24Tsl0bHZo-DWWqhyH-2" edge="1">
          <mxGeometry relative="1" as="geometry">
            <Array as="points">
              <mxPoint x="400" y="280" />
              <mxPoint x="260" y="280" />
            </Array>
          </mxGeometry>
        </mxCell>
        <mxCell id="xX24Tsl0bHZo-DWWqhyH-6" value="schedule.date=2023/01/01" style="edgeLabel;html=1;align=center;verticalAlign=middle;resizable=0;points=[];fontStyle=1;fontSize=12;" parent="xX24Tsl0bHZo-DWWqhyH-4" vertex="1" connectable="0">
          <mxGeometry x="0.2095" y="-3" relative="1" as="geometry">
            <mxPoint x="-23" y="-7" as="offset" />
          </mxGeometry>
        </mxCell>
        <mxCell id="xX24Tsl0bHZo-DWWqhyH-5" style="edgeStyle=orthogonalEdgeStyle;rounded=0;orthogonalLoop=1;jettySize=auto;html=1;" parent="1" source="xX24Tsl0bHZo-DWWqhyH-1" target="xX24Tsl0bHZo-DWWqhyH-3" edge="1">
          <mxGeometry relative="1" as="geometry">
            <Array as="points">
              <mxPoint x="400" y="280" />
              <mxPoint x="550" y="280" />
            </Array>
          </mxGeometry>
        </mxCell>
        <mxCell id="xX24Tsl0bHZo-DWWqhyH-7" value="schedule.date=2023/01/02" style="edgeLabel;html=1;align=center;verticalAlign=middle;resizable=0;points=[];fontStyle=1;fontSize=12;" parent="xX24Tsl0bHZo-DWWqhyH-5" vertex="1" connectable="0">
          <mxGeometry x="0.0364" y="1" relative="1" as="geometry">
            <mxPoint x="16" y="-9" as="offset" />
          </mxGeometry>
        </mxCell>
        <mxCell id="xX24Tsl0bHZo-DWWqhyH-1" value="EndOfDayJob" style="rounded=1;whiteSpace=wrap;html=1;" parent="1" vertex="1">
          <mxGeometry x="340" y="200" width="120" height="50" as="geometry" />
        </mxCell>
        <mxCell id="THBmACMTn8MUryFC66vn-5" style="edgeStyle=orthogonalEdgeStyle;rounded=0;orthogonalLoop=1;jettySize=auto;html=1;entryX=0.5;entryY=0;entryDx=0;entryDy=0;" edge="1" parent="1" source="xX24Tsl0bHZo-DWWqhyH-2" target="THBmACMTn8MUryFC66vn-2">
          <mxGeometry relative="1" as="geometry" />
        </mxCell>
        <mxCell id="xX24Tsl0bHZo-DWWqhyH-2" value="Job Instance 1&lt;br&gt;(data of 2023/01/01)" style="rounded=1;whiteSpace=wrap;html=1;" parent="1" vertex="1">
          <mxGeometry x="200" y="320" width="120" height="60" as="geometry" />
        </mxCell>
        <mxCell id="THBmACMTn8MUryFC66vn-7" style="edgeStyle=orthogonalEdgeStyle;rounded=0;orthogonalLoop=1;jettySize=auto;html=1;entryX=0.5;entryY=0;entryDx=0;entryDy=0;" edge="1" parent="1" source="xX24Tsl0bHZo-DWWqhyH-3" target="THBmACMTn8MUryFC66vn-4">
          <mxGeometry relative="1" as="geometry" />
        </mxCell>
        <mxCell id="xX24Tsl0bHZo-DWWqhyH-3" value="Job Instance 2&lt;br&gt;(data of 2023/01/02)" style="rounded=1;whiteSpace=wrap;html=1;" parent="1" vertex="1">
          <mxGeometry x="490" y="320" width="120" height="60" as="geometry" />
        </mxCell>
        <mxCell id="xX24Tsl0bHZo-DWWqhyH-13" style="edgeStyle=orthogonalEdgeStyle;orthogonalLoop=1;jettySize=auto;html=1;curved=1;dashed=1;" parent="1" source="xX24Tsl0bHZo-DWWqhyH-8" edge="1">
          <mxGeometry relative="1" as="geometry">
            <mxPoint x="270" y="260" as="targetPoint" />
            <Array as="points">
              <mxPoint x="271" y="235" />
            </Array>
          </mxGeometry>
        </mxCell>
        <mxCell id="xX24Tsl0bHZo-DWWqhyH-8" value="Job parameter" style="text;html=1;strokeColor=#6c8ebf;fillColor=#dae8fc;align=center;verticalAlign=middle;whiteSpace=wrap;rounded=0;" parent="1" vertex="1">
          <mxGeometry x="90" y="220" width="90" height="30" as="geometry" />
        </mxCell>
        <mxCell id="xX24Tsl0bHZo-DWWqhyH-17" style="edgeStyle=orthogonalEdgeStyle;orthogonalLoop=1;jettySize=auto;html=1;curved=1;dashed=1;" parent="1" source="xX24Tsl0bHZo-DWWqhyH-10" target="xX24Tsl0bHZo-DWWqhyH-1" edge="1">
          <mxGeometry relative="1" as="geometry" />
        </mxCell>
        <mxCell id="xX24Tsl0bHZo-DWWqhyH-10" value="Job" style="text;html=1;strokeColor=#6c8ebf;fillColor=#dae8fc;align=center;verticalAlign=middle;whiteSpace=wrap;rounded=0;" parent="1" vertex="1">
          <mxGeometry x="540" y="170" width="90" height="30" as="geometry" />
        </mxCell>
        <mxCell id="xX24Tsl0bHZo-DWWqhyH-15" style="edgeStyle=orthogonalEdgeStyle;orthogonalLoop=1;jettySize=auto;html=1;entryX=0.5;entryY=1;entryDx=0;entryDy=0;dashed=1;strokeColor=none;curved=1;" parent="1" source="xX24Tsl0bHZo-DWWqhyH-11" target="xX24Tsl0bHZo-DWWqhyH-2" edge="1">
          <mxGeometry relative="1" as="geometry">
            <Array as="points">
              <mxPoint x="725" y="400" />
              <mxPoint x="260" y="400" />
            </Array>
          </mxGeometry>
        </mxCell>
        <mxCell id="THBmACMTn8MUryFC66vn-1" style="edgeStyle=orthogonalEdgeStyle;orthogonalLoop=1;jettySize=auto;html=1;curved=1;dashed=1;" edge="1" parent="1" source="xX24Tsl0bHZo-DWWqhyH-11" target="xX24Tsl0bHZo-DWWqhyH-3">
          <mxGeometry relative="1" as="geometry" />
        </mxCell>
        <mxCell id="xX24Tsl0bHZo-DWWqhyH-11" value="Job instance" style="text;html=1;strokeColor=#6c8ebf;fillColor=#dae8fc;align=center;verticalAlign=middle;whiteSpace=wrap;rounded=0;" parent="1" vertex="1">
          <mxGeometry x="660" y="300" width="90" height="30" as="geometry" />
        </mxCell>
        <mxCell id="THBmACMTn8MUryFC66vn-6" style="edgeStyle=orthogonalEdgeStyle;rounded=0;orthogonalLoop=1;jettySize=auto;html=1;entryX=0.5;entryY=0;entryDx=0;entryDy=0;" edge="1" parent="1" source="THBmACMTn8MUryFC66vn-2" target="THBmACMTn8MUryFC66vn-3">
          <mxGeometry relative="1" as="geometry" />
        </mxCell>
        <mxCell id="THBmACMTn8MUryFC66vn-2" value="Job Execution 1.1" style="rounded=1;whiteSpace=wrap;html=1;fillColor=#f8cecc;strokeColor=#b85450;" vertex="1" parent="1">
          <mxGeometry x="200" y="430" width="120" height="60" as="geometry" />
        </mxCell>
        <mxCell id="THBmACMTn8MUryFC66vn-3" value="Job Execution 1.2" style="rounded=1;whiteSpace=wrap;html=1;fillColor=#d5e8d4;strokeColor=#82b366;" vertex="1" parent="1">
          <mxGeometry x="200" y="540" width="120" height="60" as="geometry" />
        </mxCell>
        <mxCell id="THBmACMTn8MUryFC66vn-4" value="Job Execution 2.1" style="rounded=1;whiteSpace=wrap;html=1;fillColor=#d5e8d4;strokeColor=#82b366;" vertex="1" parent="1">
          <mxGeometry x="490" y="430" width="120" height="60" as="geometry" />
        </mxCell>
        <mxCell id="THBmACMTn8MUryFC66vn-9" style="edgeStyle=orthogonalEdgeStyle;orthogonalLoop=1;jettySize=auto;html=1;entryX=0;entryY=0.5;entryDx=0;entryDy=0;curved=1;dashed=1;" edge="1" parent="1" source="THBmACMTn8MUryFC66vn-8" target="THBmACMTn8MUryFC66vn-2">
          <mxGeometry relative="1" as="geometry" />
        </mxCell>
        <mxCell id="THBmACMTn8MUryFC66vn-8" value="First attempt&lt;br&gt;for Job Instance 1" style="text;html=1;strokeColor=#6c8ebf;fillColor=#dae8fc;align=center;verticalAlign=middle;whiteSpace=wrap;rounded=0;" vertex="1" parent="1">
          <mxGeometry x="40" y="410" width="100" height="40" as="geometry" />
        </mxCell>
        <mxCell id="THBmACMTn8MUryFC66vn-11" style="edgeStyle=orthogonalEdgeStyle;orthogonalLoop=1;jettySize=auto;html=1;entryX=0;entryY=0.5;entryDx=0;entryDy=0;curved=1;dashed=1;" edge="1" parent="1" source="THBmACMTn8MUryFC66vn-10" target="THBmACMTn8MUryFC66vn-3">
          <mxGeometry relative="1" as="geometry" />
        </mxCell>
        <mxCell id="THBmACMTn8MUryFC66vn-10" value="Second attempt&lt;br&gt;for Job Instance 1" style="text;html=1;strokeColor=#6c8ebf;fillColor=#dae8fc;align=center;verticalAlign=middle;whiteSpace=wrap;rounded=0;" vertex="1" parent="1">
          <mxGeometry x="40" y="520" width="100" height="40" as="geometry" />
        </mxCell>
        <mxCell id="THBmACMTn8MUryFC66vn-13" style="edgeStyle=orthogonalEdgeStyle;orthogonalLoop=1;jettySize=auto;html=1;entryX=1;entryY=0.5;entryDx=0;entryDy=0;curved=1;dashed=1;" edge="1" parent="1" source="THBmACMTn8MUryFC66vn-12" target="THBmACMTn8MUryFC66vn-4">
          <mxGeometry relative="1" as="geometry" />
        </mxCell>
        <mxCell id="THBmACMTn8MUryFC66vn-12" value="First attempt&lt;br&gt;for Job Instance 2" style="text;html=1;strokeColor=#6c8ebf;fillColor=#dae8fc;align=center;verticalAlign=middle;whiteSpace=wrap;rounded=0;" vertex="1" parent="1">
          <mxGeometry x="660" y="400" width="100" height="40" as="geometry" />
        </mxCell>
        <mxCell id="THBmACMTn8MUryFC66vn-15" style="edgeStyle=orthogonalEdgeStyle;orthogonalLoop=1;jettySize=auto;html=1;entryX=0;entryY=0.5;entryDx=0;entryDy=0;dashed=1;curved=1;" edge="1" parent="1" source="THBmACMTn8MUryFC66vn-14" target="xX24Tsl0bHZo-DWWqhyH-2">
          <mxGeometry relative="1" as="geometry" />
        </mxCell>
        <mxCell id="THBmACMTn8MUryFC66vn-14" value="Job instance" style="text;html=1;strokeColor=#6c8ebf;fillColor=#dae8fc;align=center;verticalAlign=middle;whiteSpace=wrap;rounded=0;" vertex="1" parent="1">
          <mxGeometry x="50" y="310" width="90" height="30" as="geometry" />
        </mxCell>
      </root>
    </mxGraphModel>
  </diagram>
</mxfile>
